# xmcd
#
# Track frame offsets:
# 150
# 11158
# 18960
# 30866
# 41761
# 57699
# 72831
# 85725
# 96214
# 108125
# 119486
# 137644
# 145966
# 157273
# 173864
# 187092
#
# Disc length: 2671 seconds
#
#
# Revision: 0
# Processed by: cddbd v1.5.2PL0 Copyright (c) Steve Scherf et al.
# Submitted via: FreeRIP 2.96 
#
DISCID=de0a6d10
DTITLE=Saints and Sinners - Bad Luck
DYEAR=2004
DGENRE=Rock and Roll
TTITLE0=Rest in Peace
TTITLE1=Norma Jeane
TTITLE2=Rockabilly Highschool
TTITLE3=Bad Luck
TTITLE4=Short Dress
TTITLE5=Drunk No More
TTITLE6=Personal Jesus
TTITLE7=Keep On Running
TTITLE8=Hot Lover
TTITLE9=Big City Cowboy
TTITLE10=Bad News
TTITLE11=Buddy
TTITLE12=She's A Shout
TTITLE13=Waitin' too long
TTITLE14=Whiskey Drink
TTITLE15=Feelin' Sick
EXTD=Music out of Ottendichl, Bavaria
EXTT0=
EXTT1=
EXTT2=
EXTT3=
EXTT4=
EXTT5=
EXTT6=
EXTT7=
EXTT8=
EXTT9=
EXTT10=
EXTT11=
EXTT12=
EXTT13=
EXTT14=
EXTT15=
PLAYORDER=
